<svg xmlns="http://www.w3.org/2000/svg" width="633" height="434" viewBox="0 0 633 434" fill="none">
  <path d="M0.134766 26.0318C0.134766 17.2449 0.134766 12.8514 1.84311 9.49529C3.34581 6.54313 5.74359 4.14296 8.69281 2.63876C12.0456 0.928711 16.4347 0.928711 25.2128 0.928711H607.102C615.881 0.928711 620.27 0.928711 623.622 2.63876C626.572 4.14296 628.969 6.54313 630.472 9.49529C632.18 12.8514 632.18 17.2449 632.18 26.0318V408.069C632.18 416.856 632.18 421.25 630.472 424.606C628.969 427.558 626.572 429.958 623.622 431.463C620.27 433.173 615.881 433.173 607.102 433.173H25.2128C16.4347 433.173 12.0456 433.173 8.69281 431.463C5.74359 429.958 3.34581 427.558 1.84311 424.606C0.134766 421.25 0.134766 416.856 0.134766 408.069V26.0318Z" fill="#121515"/>
</svg>