<svg width="48" height="48" viewBox="0 0 48 48" fill="none" xmlns="http://www.w3.org/2000/svg">
<circle cx="24" cy="24" r="24" fill="#FFB22E"/>
<path d="M32.21 20.819L26 14.779C25.474 14.2789 24.7759 14 24.05 14C23.3241 14 22.626 14.2789 22.1 14.779L15.89 20.779C15.6141 21.0199 15.3922 21.3164 15.2388 21.649C15.0854 21.9816 15.004 22.3428 15 22.709V31.289C15.0105 32.0167 15.309 32.7104 15.8301 33.2184C16.3512 33.7263 17.0524 34.0071 17.78 33.999H30.22C30.9476 34.0071 31.6488 33.7263 32.1699 33.2184C32.691 32.7104 32.9895 32.0167 33 31.289V22.709C32.9992 22.3575 32.929 22.0096 32.7935 21.6853C32.6579 21.3609 32.4596 21.0666 32.21 20.819ZM23.44 16.219C23.593 16.0792 23.7927 16.0017 24 16.0017C24.2073 16.0017 24.407 16.0792 24.56 16.219L30 21.499L24.53 26.779C24.377 26.9189 24.1773 26.9964 23.97 26.9964C23.7627 26.9964 23.563 26.9189 23.41 26.779L18 21.499L23.44 16.219ZM31 31.289C30.9871 31.4853 30.8987 31.669 30.7532 31.8014C30.6078 31.9338 30.4166 32.0046 30.22 31.999H17.78C17.5834 32.0046 17.3922 31.9338 17.2468 31.8014C17.1013 31.669 17.0129 31.4853 17 31.289V23.349L21.05 27.249L19.39 28.849C19.2037 29.0364 19.0992 29.2899 19.0992 29.554C19.0992 29.8182 19.2037 30.0717 19.39 30.259C19.4829 30.3566 19.5946 30.4343 19.7184 30.4875C19.8421 30.5408 19.9753 30.5685 20.11 30.569C20.3675 30.568 20.6146 30.4677 20.8 30.289L22.57 28.589C23.0096 28.8577 23.5148 28.9998 24.03 28.9998C24.5452 28.9998 25.0504 28.8577 25.49 28.589L27.26 30.289C27.4454 30.4677 27.6925 30.568 27.95 30.569C28.0847 30.5685 28.2179 30.5408 28.3416 30.4875C28.4654 30.4343 28.5771 30.3566 28.67 30.259C28.8563 30.0717 28.9608 29.8182 28.9608 29.554C28.9608 29.2899 28.8563 29.0364 28.67 28.849L27 27.249L31 23.349V31.289Z" fill="#2A3342"/>
</svg>
