<svg width="48" height="48" viewBox="0 0 48 48" fill="none" xmlns="http://www.w3.org/2000/svg">
<circle cx="24" cy="24" r="24" transform="rotate(180 24 24)" fill="#141414"/>
<path d="M29 23.0002H21.41L24.71 19.7102C24.8983 19.5219 25.0041 19.2665 25.0041 19.0002C25.0041 18.7339 24.8983 18.4785 24.71 18.2902C24.5217 18.1019 24.2663 17.9961 24 17.9961C23.7337 17.9961 23.4783 18.1019 23.29 18.2902L18.29 23.2902C18.199 23.3853 18.1276 23.4974 18.08 23.6202C17.98 23.8636 17.98 24.1367 18.08 24.3802C18.1276 24.5029 18.199 24.6151 18.29 24.7102L23.29 29.7102C23.383 29.8039 23.4936 29.8783 23.6154 29.9291C23.7373 29.9798 23.868 30.006 24 30.006C24.132 30.006 24.2627 29.9798 24.3846 29.9291C24.5065 29.8783 24.6171 29.8039 24.71 29.7102C24.8037 29.6172 24.8781 29.5066 24.9289 29.3848C24.9797 29.2629 25.0058 29.1322 25.0058 29.0002C25.0058 28.8682 24.9797 28.7375 24.9289 28.6156C24.8781 28.4937 24.8037 28.3831 24.71 28.2902L21.41 25.0002H29C29.2652 25.0002 29.5196 24.8948 29.7071 24.7073C29.8947 24.5198 30 24.2654 30 24.0002C30 23.735 29.8947 23.4806 29.7071 23.2931C29.5196 23.1055 29.2652 23.0002 29 23.0002Z" fill="#BFBFBF"/>
</svg>
