<svg width="48" height="48" viewBox="0 0 48 48" fill="none" xmlns="http://www.w3.org/2000/svg">
<circle cx="24" cy="24" r="24" transform="rotate(180 24 24)" fill="#141414"/>
<path d="M29.92 23.6202C29.8724 23.4974 29.801 23.3853 29.71 23.2902L24.71 18.2902C24.6168 18.1969 24.5061 18.123 24.3842 18.0725C24.2624 18.0221 24.1319 17.9961 24 17.9961C23.7337 17.9961 23.4783 18.1019 23.29 18.2902C23.1968 18.3834 23.1228 18.4941 23.0723 18.6159C23.0219 18.7378 22.9959 18.8683 22.9959 19.0002C22.9959 19.2665 23.1017 19.5219 23.29 19.7102L26.59 23.0002H19C18.7348 23.0002 18.4804 23.1055 18.2929 23.2931C18.1054 23.4806 18 23.735 18 24.0002C18 24.2654 18.1054 24.5198 18.2929 24.7073C18.4804 24.8948 18.7348 25.0002 19 25.0002H26.59L23.29 28.2902C23.1963 28.3831 23.1219 28.4937 23.0711 28.6156C23.0203 28.7375 22.9942 28.8682 22.9942 29.0002C22.9942 29.1322 23.0203 29.2629 23.0711 29.3848C23.1219 29.5066 23.1963 29.6172 23.29 29.7102C23.383 29.8039 23.4936 29.8783 23.6154 29.9291C23.7373 29.9798 23.868 30.006 24 30.006C24.132 30.006 24.2627 29.9798 24.3846 29.9291C24.5064 29.8783 24.617 29.8039 24.71 29.7102L29.71 24.7102C29.801 24.6151 29.8724 24.5029 29.92 24.3802C30.02 24.1367 30.02 23.8636 29.92 23.6202Z" fill="#BFBFBF"/>
</svg>
