<svg width="48" height="48" viewBox="0 0 48 48" fill="none" xmlns="http://www.w3.org/2000/svg">
<circle cx="24" cy="24" r="24" fill="#FFB22E"/>
<path d="M34.2647 14.4268C33.98 14.1899 33.6364 14.0347 33.2704 13.9776C32.9045 13.9205 32.5299 13.9637 32.1866 14.1026L14.2657 21.3379C13.8824 21.4956 13.5562 21.7661 13.3303 22.1136C13.1043 22.461 12.9894 22.8689 13.0008 23.2832C13.0121 23.6974 13.1492 24.0985 13.3937 24.433C13.6383 24.7676 13.9789 25.0198 14.3702 25.1563L17.9952 26.417L20.0157 33.0987C20.0431 33.1879 20.083 33.2729 20.134 33.3511C20.1418 33.3631 20.1527 33.372 20.161 33.3837C20.22 33.466 20.2913 33.5388 20.3724 33.5994C20.3955 33.617 20.4175 33.6335 20.4422 33.6491C20.5371 33.7121 20.6423 33.7581 20.7529 33.7852L20.7648 33.7862L20.7715 33.7891C20.838 33.8026 20.9057 33.8095 20.9736 33.8096C20.9802 33.8096 20.986 33.8065 20.9924 33.8064C21.0949 33.8046 21.1965 33.7869 21.2935 33.754C21.3161 33.7464 21.3355 33.7335 21.3574 33.7242C21.4297 33.6942 21.4983 33.6558 21.5617 33.6096C21.6124 33.5669 21.6631 33.5242 21.7139 33.4815L24.416 30.4981L28.4463 33.6201C28.8011 33.8964 29.2379 34.0465 29.6875 34.0469C30.1587 34.0463 30.6154 33.8837 30.9809 33.5864C31.3465 33.2892 31.5987 32.8752 31.6954 32.4141L34.958 16.3975C35.032 16.037 35.0065 15.6632 34.8844 15.3161C34.7623 14.969 34.5481 14.6616 34.2647 14.4268ZM21.3702 26.7354C21.2315 26.8735 21.1367 27.0495 21.0977 27.2413L20.7882 28.7453L20.0041 26.1522L24.0694 24.0352L21.3702 26.7354ZM29.6719 32.0391L24.9092 28.3496C24.71 28.1957 24.46 28.1224 24.2092 28.1445C23.9583 28.1666 23.725 28.2824 23.5557 28.4688L22.6903 29.424L22.9961 27.9375L30.0791 20.8545C30.2482 20.6857 30.3512 20.4619 30.3695 20.2236C30.3878 19.9854 30.3201 19.7485 30.1788 19.5558C30.0375 19.3632 29.8319 19.2275 29.5992 19.1733C29.3664 19.1192 29.122 19.1502 28.9102 19.2608L18.7449 24.5534L15.0205 23.1905L32.999 15.9981L29.6719 32.0391Z" fill="#2A3342"/>
</svg>
