<svg width="37" height="38" viewBox="0 0 37 38" fill="none" xmlns="http://www.w3.org/2000/svg">
<g id="rainy weather / 24 / Outline">
<path id="Vector" d="M13.9806 12.4788C13.9806 8.25854 10.0212 5.55759 9.85242 5.45017C9.59864 5.27864 9.29934 5.18697 8.99303 5.18697C8.68672 5.18697 8.38741 5.27864 8.13364 5.45017C7.96483 5.57294 4.00549 8.25854 4.00549 12.4788C4.00549 13.8015 4.53096 15.0701 5.46631 16.0055C6.40165 16.9408 7.67025 17.4663 8.99303 17.4663C10.3158 17.4663 11.5844 16.9408 12.5197 16.0055C13.4551 15.0701 13.9806 13.8015 13.9806 12.4788ZM8.99303 14.397C8.48427 14.397 7.99635 14.1949 7.6366 13.8352C7.27685 13.4754 7.07475 12.9875 7.07475 12.4788C7.20103 11.0237 7.8891 9.67514 8.99303 8.71892C10.1035 9.66997 10.7931 11.0214 10.9113 12.4788C10.9113 12.9875 10.7092 13.4754 10.3495 13.8352C9.98971 14.1949 9.50179 14.397 8.99303 14.397ZM18.2929 16.1926C18.0391 16.021 17.7398 15.9294 17.4335 15.9294C17.1272 15.9294 16.8279 16.021 16.5741 16.1926C16.3132 16.3767 10.144 20.643 10.144 27.0577C10.144 28.991 10.912 30.8451 12.279 32.2121C13.6461 33.5792 15.5002 34.3472 17.4335 34.3472C19.3668 34.3472 21.2209 33.5792 22.5879 32.2121C23.955 30.8451 24.7229 28.991 24.7229 27.0577C24.7229 20.5355 18.5844 16.3614 18.2929 16.1926ZM17.4335 31.2779C16.8793 31.2779 16.3305 31.1688 15.8185 30.9567C15.3064 30.7446 14.8412 30.4337 14.4493 30.0419C14.0574 29.65 13.7466 29.1847 13.5345 28.6727C13.3224 28.1607 13.2133 27.6119 13.2133 27.0577C13.2133 23.5127 15.9909 20.6583 17.4488 19.3846C18.8914 20.5969 21.6537 23.4206 21.6537 27.0577C21.6537 27.6119 21.5445 28.1607 21.3324 28.6727C21.1204 29.1847 20.8095 29.65 20.4176 30.0419C20.0257 30.4337 19.5605 30.7446 19.0485 30.9567C18.5365 31.1688 17.9877 31.2779 17.4335 31.2779ZM27.8843 3.91554C27.6305 3.74401 27.3312 3.65234 27.0249 3.65234C26.7186 3.65234 26.4193 3.74401 26.1655 3.91554C25.9506 4.06901 20.8864 7.56795 20.8864 12.8624C20.8864 14.4904 21.5331 16.0518 22.6843 17.203C23.8355 18.3542 25.3969 19.0009 27.0249 19.0009C28.6529 19.0009 30.2143 18.3542 31.3655 17.203C32.5167 16.0518 33.1634 14.4904 33.1634 12.8624C33.1634 7.50657 28.0991 4.05366 27.8843 3.91554ZM27.0249 15.9317C26.2109 15.9317 25.4302 15.6083 24.8546 15.0327C24.279 14.4571 23.9556 13.6764 23.9556 12.8624C24.0608 11.7543 24.3865 10.6784 24.9136 9.69799C25.4407 8.71759 26.1585 7.8525 27.0249 7.1536C27.8945 7.84952 28.6146 8.71388 29.142 9.69486C29.6694 10.6758 29.9932 11.7532 30.0941 12.8624C30.0941 13.6764 29.7708 14.4571 29.1952 15.0327C28.6196 15.6083 27.8389 15.9317 27.0249 15.9317Z" fill="#3B82F6"/>
</g>
</svg>
