<svg xmlns="http://www.w3.org/2000/svg" width="38" height="38" viewBox="0 0 38 38" fill="none">
<path fill-rule="evenodd" clip-rule="evenodd" d="M15.2451 6.54638C15.2373 6.52045 15.2337 6.49729 15.2325 6.47855C16.0503 5.87828 17.3368 5.25221 18.8426 5.2708C20.3519 5.28943 21.6101 5.90237 22.4031 6.47741C22.4016 6.49492 22.3978 6.51604 22.3906 6.53953L19.8256 14.9541C19.474 14.8832 19.1102 14.846 18.7377 14.846C18.3971 14.846 18.0637 14.8771 17.7403 14.9367L15.2451 6.54638ZM14.8954 16.4221L14.3219 14.4936C12.9941 15.163 11.9912 16.144 11.4181 17.1991C11.1996 17.6015 10.6963 17.7505 10.294 17.532C9.89162 17.3135 9.74259 16.8102 9.9611 16.4078C10.7496 14.9559 12.1111 13.69 13.8431 12.8835L13.2459 10.8755L13.2369 10.8791C10.3192 12.0435 8.18579 14.3298 7.13382 17.0467C6.9685 17.4736 6.48835 17.6857 6.06139 17.5204C5.63442 17.3551 5.42232 16.8749 5.58764 16.448C6.79897 13.3196 9.25924 10.6813 12.6223 9.33913C12.672 9.3193 12.7218 9.2998 12.7716 9.28065L12.2255 7.4444C11.8965 6.33801 12.1009 4.89382 13.2743 4.00907C14.456 3.118 16.4348 2.09056 18.8815 2.12077C21.2775 2.15035 23.1958 3.13655 24.3556 4.00302C25.5443 4.89102 25.7419 6.34978 25.404 7.4581L22.6501 16.4924C23.2697 17.1261 23.7366 17.9097 23.9914 18.7837L25.7276 19.1986C25.5045 18.047 25.0293 17.0428 24.4013 16.2874C24.1086 15.9353 24.1568 15.4126 24.5088 15.1199C24.8609 14.8273 25.3836 14.8754 25.6763 15.2275C26.6347 16.3803 27.2761 17.9146 27.4667 19.6141L29.5962 20.1229C29.5424 17.0593 28.221 14.3061 26.1317 12.3631C25.7965 12.0513 25.7774 11.5267 26.0892 11.1914C26.4011 10.8562 26.9256 10.8371 27.2609 11.1489C29.7174 13.4335 31.2559 16.6965 31.2559 20.3174C31.2559 20.3848 31.2554 20.452 31.2543 20.5191L33.1135 20.9633C34.2361 21.2315 35.3846 22.1307 35.5642 23.5892C35.745 25.0581 35.6454 27.2855 34.3959 29.3893C33.1722 31.4496 31.359 32.6177 30.0287 33.1889C28.6653 33.7744 27.3032 33.2161 26.5123 32.3693L20.1852 25.5955C19.7242 25.7216 19.2388 25.789 18.7377 25.789C18.2718 25.789 17.8196 25.7308 17.3878 25.6212L15.984 27.1037C17.0876 27.716 18.2475 27.9993 19.2929 27.972C19.7506 27.9601 20.1314 28.3215 20.1433 28.7792C20.1552 29.2369 19.7939 29.6176 19.3362 29.6295C17.8481 29.6683 16.2583 29.2289 14.8138 28.3395L13.3485 29.887C15.7331 31.5824 18.5931 32.1825 21.3041 31.7612C21.7566 31.6909 22.1803 32.0007 22.2506 32.4531C22.3209 32.9055 22.0112 33.3293 21.5587 33.3996C18.3647 33.8959 14.9849 33.1606 12.1987 31.1013L10.982 32.3862C10.1883 33.2244 8.83538 33.7694 7.4825 33.1956C6.11996 32.6178 4.24076 31.4178 3.04355 29.2838C1.87115 27.1939 1.76613 25.0396 1.93657 23.6019C2.11126 22.1285 3.27581 21.228 4.40457 20.9665L13.4603 18.868C13.7181 17.9272 14.2207 17.0876 14.8954 16.4221ZM13.5561 22.0795L5.11575 24.0354C5.09183 24.0409 5.07166 24.0483 5.05572 24.0556C4.95424 25.03 5.05251 26.4261 5.79101 27.7424C6.5278 29.0558 7.71325 29.8569 8.642 30.265C8.65764 30.2546 8.67587 30.2398 8.69448 30.2202L14.6391 23.9423C14.1635 23.405 13.7921 22.7736 13.5561 22.0795ZM22.8921 23.8784C23.3563 23.3373 23.7166 22.7045 23.9421 22.0109L32.3814 24.0273C32.4077 24.0336 32.4296 24.042 32.4464 24.0504C32.5573 25.0587 32.4563 26.4859 31.6873 27.7806C30.9165 29.0784 29.7566 29.8615 28.8621 30.2608C28.8477 30.2507 28.8313 30.2369 28.8145 30.2189L22.8921 23.8784ZM16.4165 20.3175C16.4165 19.0355 17.4557 17.9962 18.7377 17.9962C20.0197 17.9962 21.059 19.0355 21.059 20.3175C21.059 21.5995 20.0197 22.6387 18.7377 22.6387C17.4557 22.6387 16.4165 21.5995 16.4165 20.3175Z" fill="#22C55E"/>
</svg>