<svg xmlns="http://www.w3.org/2000/svg" width="38" height="38" viewBox="0 0 38 38" fill="none">
<path d="M34.0998 17.4659C34.0933 17.3842 34.0933 17.3021 34.0998 17.2204C34.0998 16.7907 33.9771 16.361 33.9003 15.9313C33.6197 14.6599 33.1707 13.4316 32.5652 12.2789C31.5314 10.1638 30.0249 8.31482 28.1621 6.87516C26.2993 5.43551 24.1303 4.44373 21.8228 3.97657L20.5337 3.77707H20.2882H19.8432H19.7204L18.7536 3.6543C18.2318 3.6543 17.71 3.6543 17.219 3.6543H16.9734L15.6843 3.96122C12.7379 4.56539 10.034 6.02206 7.90859 8.1502C5.78318 10.2783 4.32998 12.9841 3.72959 15.9313C3.65286 16.361 3.59148 16.7907 3.53009 17.2204C3.53665 17.3021 3.53665 17.3842 3.53009 17.4659C3.53009 17.9724 3.53009 18.4941 3.53009 19.0006C3.53009 19.507 3.53009 20.0441 3.53009 20.5352C3.53665 20.6169 3.53665 20.699 3.53009 20.7807C3.53009 21.2104 3.65286 21.6401 3.72959 22.0698C3.97124 23.3353 4.37888 24.5634 4.94195 25.7222C5.97574 27.8374 7.48231 29.6863 9.34508 31.1259C11.2079 32.5656 13.3769 33.5574 15.6843 34.0245L16.9734 34.224L17.219 34.3468H17.7407H17.9556C18.2318 34.3468 18.4927 34.3468 18.7689 34.3468C19.2907 34.3468 19.8125 34.3468 20.3036 34.2701H20.5491L21.8228 34.0399C24.7692 33.4357 27.4732 31.9791 29.5986 29.8509C31.724 27.7228 33.1772 25.017 33.7776 22.0698C33.8543 21.6401 33.9157 21.2104 33.9771 20.7807C34.0106 20.6954 34.0517 20.6132 34.0998 20.5352C34.0998 20.0288 34.1766 19.507 34.1766 19.0006C34.1766 18.4941 34.0998 17.957 34.0998 17.4659ZM20.5337 6.87701L21.3011 6.98444C24.0753 7.5766 26.5589 9.11122 28.3296 11.3274H17.8635L20.5337 6.87701ZM16.3289 6.99978L16.9427 6.9077L11.6636 15.9313L9.08544 11.4502C10.8712 9.16104 13.4104 7.5788 16.2521 6.98444L16.3289 6.99978ZM7.382 23.6044C7.1047 22.9243 6.88898 22.2207 6.73746 21.502C6.73746 21.1644 6.61469 20.8114 6.584 20.4585C6.5766 20.3973 6.5766 20.3355 6.584 20.2743C6.50214 19.4476 6.50214 18.6149 6.584 17.7882C6.5766 17.727 6.5766 17.6652 6.584 17.604C6.584 17.2511 6.67607 16.8981 6.73746 16.5605C6.87246 15.8746 7.0676 15.2018 7.32062 14.5501L12.6151 23.6044H7.382ZM17.0501 31.1394L16.2828 31.032C13.4786 30.4523 10.9652 28.9106 9.17751 26.6737H19.6437L17.0501 31.1394ZM16.0987 23.6044L13.4438 19.0006L16.0987 14.3967H21.4085L24.0634 19.0006L21.4085 23.6044H16.0987ZM21.255 31.0167L20.6412 31.1088L25.8436 22.0698L28.4217 26.5509C26.636 28.8401 24.0968 30.4223 21.255 31.0167ZM30.9692 20.2743C30.9766 20.3355 30.9766 20.3973 30.9692 20.4585C30.9692 20.8114 30.8771 21.1644 30.8157 21.502C30.6773 22.1671 30.4822 22.8191 30.2326 23.451L24.8921 14.3967H30.0638C30.3411 15.0768 30.5568 15.7804 30.7083 16.4991C30.7083 16.8367 30.8311 17.1897 30.8618 17.5427C30.8692 17.6038 30.8692 17.6657 30.8618 17.7268C30.9436 18.5535 30.9436 19.3862 30.8618 20.2129L30.9692 20.2743Z" fill="#22C55E"/>
</svg>