<svg width="122" height="22" viewBox="0 0 122 22" fill="none" xmlns="http://www.w3.org/2000/svg">
<path d="M0 21.38L9.36 0.380005H14.16L23.55 21.38H18.45L10.77 2.84001H12.69L4.98 21.38H0ZM4.68 16.88L5.97 13.19H16.77L18.09 16.88H4.68Z" fill="white"/>
<path d="M30.6823 21.62C29.3023 21.62 27.9723 21.46 26.6923 21.14C25.4323 20.8 24.4323 20.38 23.6923 19.88L25.2523 16.52C25.9923 16.98 26.8623 17.36 27.8623 17.66C28.8823 17.94 29.8823 18.08 30.8623 18.08C31.9423 18.08 32.7023 17.95 33.1423 17.69C33.6023 17.43 33.8323 17.07 33.8323 16.61C33.8323 16.23 33.6523 15.95 33.2923 15.77C32.9523 15.57 32.4923 15.42 31.9123 15.32C31.3323 15.22 30.6923 15.12 29.9923 15.02C29.3123 14.92 28.6223 14.79 27.9223 14.63C27.2223 14.45 26.5823 14.19 26.0023 13.85C25.4223 13.51 24.9523 13.05 24.5923 12.47C24.2523 11.89 24.0823 11.14 24.0823 10.22C24.0823 9.20001 24.3723 8.30001 24.9523 7.52001C25.5523 6.74001 26.4123 6.13001 27.5323 5.69001C28.6523 5.23001 29.9923 5.00001 31.5523 5.00001C32.6523 5.00001 33.7723 5.12001 34.9123 5.36001C36.0523 5.60001 37.0023 5.95001 37.7623 6.41001L36.2023 9.74001C35.4223 9.28001 34.6323 8.97001 33.8323 8.81001C33.0523 8.63 32.2923 8.54001 31.5523 8.54001C30.5123 8.54001 29.7523 8.68001 29.2723 8.96C28.7923 9.24001 28.5523 9.60001 28.5523 10.04C28.5523 10.44 28.7223 10.74 29.0623 10.94C29.4223 11.14 29.8923 11.3 30.4723 11.42C31.0523 11.54 31.6823 11.65 32.3623 11.75C33.0623 11.83 33.7623 11.96 34.4623 12.14C35.1623 12.32 35.7923 12.58 36.3523 12.92C36.9323 13.24 37.4023 13.69 37.7623 14.27C38.1223 14.83 38.3023 15.57 38.3023 16.49C38.3023 17.49 38.0023 18.38 37.4023 19.16C36.8023 19.92 35.9323 20.52 34.7923 20.96C33.6723 21.4 32.3023 21.62 30.6823 21.62Z" fill="white"/>
<path d="M47.7898 21.62C45.8898 21.62 44.4098 21.14 43.3498 20.18C42.2898 19.2 41.7598 17.75 41.7598 15.83V1.67001H46.4398V15.77C46.4398 16.45 46.6198 16.98 46.9798 17.36C47.3398 17.72 47.8298 17.9 48.4498 17.9C49.1898 17.9 49.8198 17.7 50.3398 17.3L51.5998 20.6C51.1198 20.94 50.5398 21.2 49.8598 21.38C49.1998 21.54 48.5098 21.62 47.7898 21.62ZM39.2698 9.20001V5.60001H50.4598V9.20001H39.2698Z" fill="white"/>
<path d="M61.7388 21.62C59.8988 21.62 58.2788 21.26 56.8788 20.54C55.4988 19.82 54.4288 18.84 53.6688 17.6C52.9088 16.34 52.5288 14.91 52.5288 13.31C52.5288 11.69 52.8988 10.26 53.6388 9.02001C54.3988 7.76001 55.4288 6.78001 56.7288 6.08C58.0288 5.36001 59.4988 5.00001 61.1388 5.00001C62.7188 5.00001 64.1388 5.34001 65.3988 6.02001C66.6788 6.68001 67.6888 7.64001 68.4288 8.90001C69.1688 10.14 69.5388 11.63 69.5388 13.37C69.5388 13.55 69.5288 13.76 69.5088 14C69.4888 14.22 69.4688 14.43 69.4488 14.63H56.3388V11.9H66.9888L65.1888 12.71C65.1888 11.87 65.0188 11.14 64.6788 10.52C64.3388 9.90001 63.8688 9.42001 63.2688 9.08001C62.6688 8.72001 61.9688 8.54001 61.1688 8.54001C60.3688 8.54001 59.6588 8.72001 59.0388 9.08001C58.4388 9.42001 57.9688 9.91001 57.6288 10.55C57.2888 11.17 57.1188 11.91 57.1188 12.77V13.49C57.1188 14.37 57.3088 15.15 57.6888 15.83C58.0888 16.49 58.6388 17 59.3388 17.36C60.0588 17.7 60.8988 17.87 61.8588 17.87C62.7188 17.87 63.4688 17.74 64.1088 17.48C64.7688 17.22 65.3688 16.83 65.9088 16.31L68.3988 19.01C67.6588 19.85 66.7288 20.5 65.6088 20.96C64.4888 21.4 63.1988 21.62 61.7388 21.62Z" fill="white"/>
<path d="M72.6546 21.38V5.24001H77.1246V9.80001L76.4946 8.48001C76.9746 7.34001 77.7446 6.48001 78.8046 5.90001C79.8646 5.30001 81.1546 5.00001 82.6746 5.00001V9.32001C82.4746 9.30001 82.2946 9.29001 82.1346 9.29001C81.9746 9.27001 81.8046 9.26001 81.6246 9.26001C80.3446 9.26001 79.3046 9.63001 78.5046 10.37C77.7246 11.09 77.3346 12.22 77.3346 13.76V21.38H72.6546Z" fill="white"/>
<path d="M93.0202 21.62C91.3002 21.62 89.7701 21.26 88.4302 20.54C87.1102 19.82 86.0602 18.84 85.2802 17.6C84.5202 16.34 84.1402 14.91 84.1402 13.31C84.1402 11.69 84.5202 10.26 85.2802 9.02001C86.0602 7.76001 87.1102 6.78001 88.4302 6.08C89.7701 5.36001 91.3002 5.00001 93.0202 5.00001C94.7202 5.00001 96.2402 5.36001 97.5802 6.08C98.9202 6.78001 99.9702 7.75001 100.73 8.99001C101.49 10.23 101.87 11.67 101.87 13.31C101.87 14.91 101.49 16.34 100.73 17.6C99.9702 18.84 98.9202 19.82 97.5802 20.54C96.2402 21.26 94.7202 21.62 93.0202 21.62ZM93.0202 17.78C93.8002 17.78 94.5002 17.6 95.1202 17.24C95.7402 16.88 96.2302 16.37 96.5902 15.71C96.9502 15.03 97.1302 14.23 97.1302 13.31C97.1302 12.37 96.9502 11.57 96.5902 10.91C96.2302 10.25 95.7402 9.74001 95.1202 9.38001C94.5002 9.02001 93.8002 8.84001 93.0202 8.84001C92.2402 8.84001 91.5402 9.02001 90.9202 9.38001C90.3002 9.74001 89.8002 10.25 89.4202 10.91C89.0602 11.57 88.8802 12.37 88.8802 13.31C88.8802 14.23 89.0602 15.03 89.4202 15.71C89.8002 16.37 90.3002 16.88 90.9202 17.24C91.5402 17.6 92.2402 17.78 93.0202 17.78Z" fill="white"/>
<path d="M114.808 5.00001C116.088 5.00001 117.228 5.26001 118.228 5.78C119.248 6.28 120.048 7.06001 120.628 8.12001C121.208 9.16001 121.498 10.5 121.498 12.14V21.38H116.818V12.86C116.818 11.56 116.528 10.6 115.948 9.98001C115.388 9.36001 114.588 9.05001 113.548 9.05001C112.808 9.05001 112.138 9.21001 111.538 9.53001C110.958 9.83001 110.498 10.3 110.158 10.94C109.838 11.58 109.678 12.4 109.678 13.4V21.38H104.998V5.24001H109.468V9.71001L108.628 8.36001C109.208 7.28001 110.038 6.45001 111.118 5.87001C112.198 5.29001 113.428 5.00001 114.808 5.00001Z" fill="white"/>
</svg>
