<svg id="Layer_1" data-name="Layer 1" xmlns="http://www.w3.org/2000/svg" viewBox="0 0 568.2 86.24"><defs><style>.cls-1{fill:#fff;}</style></defs><title>Asteron_Logo</title><path class="cls-1" d="M38.39,0,0,84.44H24.88l7-16.22H75.63l7,16.22h24.88L69.13,0Zm1.67,49.42L53.81,17.71l13.7,31.71Z"/><path class="cls-1" d="M173.26,46.89q-6.42-2.53-17.56-3.21l-15-1.12c-3.61-.3-6.06-.83-7.38-1.58a3.4,3.4,0,0,1-2-3q0-2.47,3.21-3.83t9.4-1.35a27.92,27.92,0,0,1,8.67,1.13A14.58,14.58,0,0,1,158,36.76a8,8,0,0,1,2.48,3.88h23.3a19.26,19.26,0,0,0-5.85-11.76,34.32,34.32,0,0,0-13.51-7.83,61,61,0,0,0-19.25-2.81A67.5,67.5,0,0,0,126,20.66q-8.17,2.41-12.73,7.2A16.85,16.85,0,0,0,108.75,40a16.48,16.48,0,0,0,2.93,9.62q2.92,4.23,9.63,6.87t18.07,3.43l11.37.9A36.23,36.23,0,0,1,160,62.43q2.7,1.07,2.7,3.21,0,2.7-3.55,4T148.72,71a37.86,37.86,0,0,1-9.12-1,15.69,15.69,0,0,1-6.14-2.81,9,9,0,0,1-3.09-4.45H107.06a18.56,18.56,0,0,0,5.41,12.27q5.07,5.3,14.13,8.22a68.79,68.79,0,0,0,21.11,2.93,68.29,68.29,0,0,0,20-2.59q8.33-2.59,12.83-7.66a18.11,18.11,0,0,0,4.5-12.49,17.82,17.82,0,0,0-2.7-9.91Q179.68,49.42,173.26,46.89Z"/><path class="cls-1" d="M237.21,68.67q-7.43,0-10.25-2.81t-2.81-9.79V37.15h27v-17h-27V2.81H211.09l-9.91,19-13.06,5.29v10h13.06V59.22a30.06,30.06,0,0,0,3.27,14.35A21.5,21.5,0,0,0,214.52,83q6.81,3.27,17.51,3.27a62.45,62.45,0,0,0,11.37-1A55.26,55.26,0,0,0,252.3,83V65.64a36.81,36.81,0,0,1-6.7,2.19A37.73,37.73,0,0,1,237.21,68.67Z"/><path class="cls-1" d="M328,37.38A33.28,33.28,0,0,0,315.4,23.25q-8.16-5-19.76-5a45.29,45.29,0,0,0-20,4.28,34.21,34.21,0,0,0-13.91,11.87A31.08,31.08,0,0,0,256.69,52,31,31,0,0,0,262,70a35.09,35.09,0,0,0,14.47,12,48.85,48.85,0,0,0,20.88,4.28,66.62,66.62,0,0,0,18.29-2.42,52.28,52.28,0,0,0,15.15-6.93V62.26A50.64,50.64,0,0,1,318,67.49a55.07,55.07,0,0,1-14.13,1.86,33.88,33.88,0,0,1-13.12-2.25,17.41,17.41,0,0,1-8.1-6.48,14.06,14.06,0,0,1-1-1.74h50.79Q332.46,46.49,328,37.38Zm-40.48-.9a17.48,17.48,0,0,1,8.67-2,16.42,16.42,0,0,1,7.94,1.8,13.8,13.8,0,0,1,5.35,5.24A16.44,16.44,0,0,1,311,45H280.63a14.1,14.1,0,0,1,1.28-3A14.6,14.6,0,0,1,287.53,36.48Z"/><path class="cls-1" d="M388.3,18.24A21.55,21.55,0,0,0,377,21a23.41,23.41,0,0,0-7.71,7.54,40.15,40.15,0,0,0-4.19,8.74l-2.85-17.13H338.87l4.28,21.62V84.44h23V58q0-7.54,2.53-12a15,15,0,0,1,6.7-6.47,21.06,21.06,0,0,1,9.12-2c1.65,0,3.47.09,5.46.28a63.14,63.14,0,0,1,6.36,1V19.14a38,38,0,0,0-4.05-.68A35.74,35.74,0,0,0,388.3,18.24Z"/><path class="cls-1" d="M462.32,22.52a51.08,51.08,0,0,0-21.56-4.28q-12.39,0-21.62,4.28a34.39,34.39,0,0,0-14.41,11.93,31.19,31.19,0,0,0-5.18,17.9,31.07,31.07,0,0,0,5.18,17.73A33.91,33.91,0,0,0,419.14,82q9.24,4.22,21.62,4.22A51.71,51.71,0,0,0,462.32,82a33.9,33.9,0,0,0,14.47-11.94A31.26,31.26,0,0,0,482,52.24a31,31,0,0,0-5.17-17.79A34.39,34.39,0,0,0,462.32,22.52Zm-5.8,38.89a14.29,14.29,0,0,1-6.14,5.8,21.06,21.06,0,0,1-9.62,2,21.41,21.41,0,0,1-9.68-2,14.16,14.16,0,0,1-6.2-5.85,18.46,18.46,0,0,1-2.13-9.12,18.19,18.19,0,0,1,2.13-9.07,14.26,14.26,0,0,1,6.2-5.79,21.41,21.41,0,0,1,9.68-2,21.06,21.06,0,0,1,9.62,2,14.33,14.33,0,0,1,6.14,5.79,18.44,18.44,0,0,1,2.14,9.18A18.12,18.12,0,0,1,456.52,61.41Z"/><path class="cls-1" d="M564.77,32.42A24.63,24.63,0,0,0,554.8,22,31.43,31.43,0,0,0,539,18.24a28.48,28.48,0,0,0-14.18,3.6,30.19,30.19,0,0,0-10.81,10.64c-.22.35-.43.73-.64,1.1l-2.17-13.43H488.16l4.27,22.18V84.44h23v-31a19,19,0,0,1,1.91-8.78A13.72,13.72,0,0,1,522.77,39a16.44,16.44,0,0,1,8.28-2q6.87,0,10.53,3.82t3.65,11V84.44h23v-36A34.91,34.91,0,0,0,564.77,32.42Z"/></svg>