<svg width="122" height="22" viewBox="0 0 122 22" fill="none" xmlns="http://www.w3.org/2000/svg">
<path d="M0 21.3799L9.36 0.379883H14.16L23.55 21.3799H18.45L10.77 2.83988H12.69L4.98 21.3799H0ZM4.68 16.8799L5.97 13.1899H16.77L18.09 16.8799H4.68Z" fill="white"/>
<path d="M30.6823 21.6199C29.3023 21.6199 27.9723 21.4599 26.6923 21.1399C25.4323 20.7999 24.4323 20.3799 23.6923 19.8799L25.2523 16.5199C25.9923 16.9799 26.8623 17.3599 27.8623 17.6599C28.8823 17.9399 29.8823 18.0799 30.8623 18.0799C31.9423 18.0799 32.7023 17.9499 33.1423 17.6899C33.6023 17.4299 33.8323 17.0699 33.8323 16.6099C33.8323 16.2299 33.6523 15.9499 33.2923 15.7699C32.9523 15.5699 32.4923 15.4199 31.9123 15.3199C31.3323 15.2199 30.6923 15.1199 29.9923 15.0199C29.3123 14.9199 28.6223 14.7899 27.9223 14.6299C27.2223 14.4499 26.5823 14.1899 26.0023 13.8499C25.4223 13.5099 24.9523 13.0499 24.5923 12.4699C24.2523 11.8899 24.0823 11.1399 24.0823 10.2199C24.0823 9.19988 24.3723 8.29988 24.9523 7.51988C25.5523 6.73988 26.4123 6.12988 27.5323 5.68988C28.6523 5.22988 29.9923 4.99988 31.5523 4.99988C32.6523 4.99988 33.7723 5.11988 34.9123 5.35988C36.0523 5.59988 37.0023 5.94988 37.7623 6.40988L36.2023 9.73988C35.4223 9.27988 34.6323 8.96988 33.8323 8.80988C33.0523 8.62988 32.2923 8.53988 31.5523 8.53988C30.5123 8.53988 29.7523 8.67988 29.2723 8.95988C28.7923 9.23988 28.5523 9.59988 28.5523 10.0399C28.5523 10.4399 28.7223 10.7399 29.0623 10.9399C29.4223 11.1399 29.8923 11.2999 30.4723 11.4199C31.0523 11.5399 31.6823 11.6499 32.3623 11.7499C33.0623 11.8299 33.7623 11.9599 34.4623 12.1399C35.1623 12.3199 35.7923 12.5799 36.3523 12.9199C36.9323 13.2399 37.4023 13.6899 37.7623 14.2699C38.1223 14.8299 38.3023 15.5699 38.3023 16.4899C38.3023 17.4899 38.0023 18.3799 37.4023 19.1599C36.8023 19.9199 35.9323 20.5199 34.7923 20.9599C33.6723 21.3999 32.3023 21.6199 30.6823 21.6199Z" fill="white"/>
<path d="M47.7898 21.6199C45.8898 21.6199 44.4098 21.1399 43.3498 20.1799C42.2898 19.1999 41.7598 17.7499 41.7598 15.8299V1.66988H46.4398V15.7699C46.4398 16.4499 46.6198 16.9799 46.9798 17.3599C47.3398 17.7199 47.8298 17.8999 48.4498 17.8999C49.1898 17.8999 49.8198 17.6999 50.3398 17.2999L51.5998 20.5999C51.1198 20.9399 50.5398 21.1999 49.8598 21.3799C49.1998 21.5399 48.5098 21.6199 47.7898 21.6199ZM39.2698 9.19988V5.59988H50.4598V9.19988H39.2698Z" fill="white"/>
<path d="M61.7388 21.6199C59.8988 21.6199 58.2788 21.2599 56.8788 20.5399C55.4988 19.8199 54.4288 18.8399 53.6688 17.5999C52.9088 16.3399 52.5288 14.9099 52.5288 13.3099C52.5288 11.6899 52.8988 10.2599 53.6388 9.01988C54.3988 7.75988 55.4288 6.77988 56.7288 6.07988C58.0288 5.35988 59.4988 4.99988 61.1388 4.99988C62.7188 4.99988 64.1388 5.33988 65.3988 6.01988C66.6788 6.67988 67.6888 7.63988 68.4288 8.89988C69.1688 10.1399 69.5388 11.6299 69.5388 13.3699C69.5388 13.5499 69.5288 13.7599 69.5088 13.9999C69.4888 14.2199 69.4688 14.4299 69.4488 14.6299H56.3388V11.8999H66.9888L65.1888 12.7099C65.1888 11.8699 65.0188 11.1399 64.6788 10.5199C64.3388 9.89988 63.8688 9.41988 63.2688 9.07988C62.6688 8.71988 61.9688 8.53988 61.1688 8.53988C60.3688 8.53988 59.6588 8.71988 59.0388 9.07988C58.4388 9.41988 57.9688 9.90988 57.6288 10.5499C57.2888 11.1699 57.1188 11.9099 57.1188 12.7699V13.4899C57.1188 14.3699 57.3088 15.1499 57.6888 15.8299C58.0888 16.4899 58.6388 16.9999 59.3388 17.3599C60.0588 17.6999 60.8988 17.8699 61.8588 17.8699C62.7188 17.8699 63.4688 17.7399 64.1088 17.4799C64.7688 17.2199 65.3688 16.8299 65.9088 16.3099L68.3988 19.0099C67.6588 19.8499 66.7288 20.4999 65.6088 20.9599C64.4888 21.3999 63.1988 21.6199 61.7388 21.6199Z" fill="white"/>
<path d="M72.6546 21.3799V5.23988H77.1246V9.79988L76.4946 8.47988C76.9746 7.33988 77.7446 6.47988 78.8046 5.89988C79.8646 5.29988 81.1546 4.99988 82.6746 4.99988V9.31988C82.4746 9.29988 82.2946 9.28988 82.1346 9.28988C81.9746 9.26988 81.8046 9.25988 81.6246 9.25988C80.3446 9.25988 79.3046 9.62988 78.5046 10.3699C77.7246 11.0899 77.3346 12.2199 77.3346 13.7599V21.3799H72.6546Z" fill="white"/>
<path d="M93.0202 21.6199C91.3002 21.6199 89.7701 21.2599 88.4302 20.5399C87.1102 19.8199 86.0602 18.8399 85.2802 17.5999C84.5202 16.3399 84.1402 14.9099 84.1402 13.3099C84.1402 11.6899 84.5202 10.2599 85.2802 9.01988C86.0602 7.75988 87.1102 6.77988 88.4302 6.07988C89.7701 5.35988 91.3002 4.99988 93.0202 4.99988C94.7202 4.99988 96.2402 5.35988 97.5802 6.07988C98.9202 6.77988 99.9702 7.74988 100.73 8.98988C101.49 10.2299 101.87 11.6699 101.87 13.3099C101.87 14.9099 101.49 16.3399 100.73 17.5999C99.9702 18.8399 98.9202 19.8199 97.5802 20.5399C96.2402 21.2599 94.7202 21.6199 93.0202 21.6199ZM93.0202 17.7799C93.8002 17.7799 94.5002 17.5999 95.1202 17.2399C95.7402 16.8799 96.2302 16.3699 96.5902 15.7099C96.9502 15.0299 97.1302 14.2299 97.1302 13.3099C97.1302 12.3699 96.9502 11.5699 96.5902 10.9099C96.2302 10.2499 95.7402 9.73988 95.1202 9.37988C94.5002 9.01988 93.8002 8.83988 93.0202 8.83988C92.2402 8.83988 91.5402 9.01988 90.9202 9.37988C90.3002 9.73988 89.8002 10.2499 89.4202 10.9099C89.0602 11.5699 88.8802 12.3699 88.8802 13.3099C88.8802 14.2299 89.0602 15.0299 89.4202 15.7099C89.8002 16.3699 90.3002 16.8799 90.9202 17.2399C91.5402 17.5999 92.2402 17.7799 93.0202 17.7799Z" fill="white"/>
<path d="M114.808 4.99988C116.088 4.99988 117.228 5.25988 118.228 5.77988C119.248 6.27988 120.048 7.05988 120.628 8.11988C121.208 9.15988 121.498 10.4999 121.498 12.1399V21.3799H116.818V12.8599C116.818 11.5599 116.528 10.5999 115.948 9.97988C115.388 9.35988 114.588 9.04988 113.548 9.04988C112.808 9.04988 112.138 9.20988 111.538 9.52988C110.958 9.82988 110.498 10.2999 110.158 10.9399C109.838 11.5799 109.678 12.3999 109.678 13.3999V21.3799H104.998V5.23988H109.468V9.70988L108.628 8.35988C109.208 7.27988 110.038 6.44988 111.118 5.86988C112.198 5.28988 113.428 4.99988 114.808 4.99988Z" fill="white"/>
</svg>
