<svg id="Layer_1" data-name="Layer 1" xmlns="http://www.w3.org/2000/svg" viewBox="0 0 172.97 174.47"><defs><style>.cls-1{fill:#fad98c;}.cls-2{fill:#f7c86a;}.cls-3{fill:#cf8f3a;}.cls-4{fill:#ffd25c;}.cls-5{fill:#ffbc36;}</style></defs><title>Asteron_Logo</title><polygon class="cls-1" points="84.98 42.4 84.98 1.5 0 86.48 40.9 86.48 84.98 42.4"/><polygon class="cls-1" points="86.48 0 86.48 0 86.48 0 86.48 0"/><polygon class="cls-2" points="132.06 86.48 172.97 86.48 87.98 1.5 87.98 42.4 132.06 86.48"/><polygon class="cls-2" points="40.9 89.48 0 89.48 84.98 174.47 84.98 133.56 40.9 89.48"/><polygon class="cls-3" points="132.06 89.48 87.98 133.56 87.98 174.47 172.97 89.48 132.06 89.48"/><polygon class="cls-4" points="43.65 87.98 86.48 130.82 86.48 130.82 86.48 45.15 86.48 45.15 43.65 87.98"/><polygon class="cls-5" points="129.32 87.98 86.48 45.15 86.48 130.82 129.32 87.98"/></svg>