<svg width="40" height="40" viewBox="0 0 40 40" fill="none" xmlns="http://www.w3.org/2000/svg">
<path d="M20.0002 11.1351L11.0244 19.7784L20.0002 29.3082V11.1351Z" fill="#FFE8A8"/>
<path d="M20 28.9758V11.2459L29.1974 19.8892L20 28.9758Z" fill="#FFC757"/>
<path d="M10.6921 20.1109H1.82715L20.0003 38.3949V29.0867L10.6921 20.1109Z" fill="#FFC757"/>
<path d="M19.889 1.38348L1.71582 19.5567H10.9132L19.889 11.0241V1.38348Z" fill="#FFD980"/>
<path d="M29.0871 20L20.1113 29.1974V38.5056L38.2845 20H29.0871Z" fill="#D98D1C"/>
<path d="M20.1113 10.5811V1.71613L38.5061 19.6677H28.8655L20.1113 10.5811Z" fill="#FFC757"/>
<path fill-rule="evenodd" clip-rule="evenodd" d="M18.5896 1.41041C19.3685 0.63146 20.6315 0.631461 21.4104 1.41041L38.5896 18.5896C39.3685 19.3685 39.3685 20.6315 38.5896 21.4104L21.4104 38.5896C20.6315 39.3685 19.3685 39.3685 18.5896 38.5896L1.41041 21.4104C0.631462 20.6315 0.631464 19.3685 1.41041 18.5896L18.5896 1.41041ZM20.4701 2.35068C20.2105 2.09103 19.7895 2.09103 19.5299 2.35068L2.35068 19.5299C2.09103 19.7895 2.09103 20.2105 2.35068 20.4701L19.5299 37.6493C19.7895 37.909 20.2105 37.909 20.4701 37.6493L37.6493 20.4701C37.909 20.2105 37.909 19.7895 37.6493 19.5299L20.4701 2.35068Z" fill="black"/>
</svg>
